<svg width="539" height="145" viewBox="0 0 539 145" fill="none" xmlns="http://www.w3.org/2000/svg">
<path d="M1.52002 3.85999H47.57C55.57 3.85999 61.44 5.39999 65.18 8.47999C66.9771 9.9116 68.4179 11.7402 69.3896 13.8222C70.3612 15.9042 70.8371 18.1831 70.78 20.48C70.78 28.38 67.1133 35.86 59.78 42.92C52.4467 49.98 44.8867 53.5233 37.1 53.55C35.3084 53.5383 33.5251 53.3065 31.79 52.86C29.8206 52.3558 27.8972 51.6868 26.04 50.86V81.92C26.04 89.3466 29.7267 93.18 37.1 93.42V96.91H1.52002V93.42C5.89335 93.3666 8.82669 92.5467 10.32 90.96C11.8134 89.3733 12.5667 86.3733 12.58 81.96V18.84C12.58 14.1733 11.7534 11.1067 10.1 9.63999C8.46002 8.20999 5.59002 7.44999 1.52002 7.34999V3.85999ZM26 12V41.09C28.7156 43.2027 31.6855 44.9664 34.84 46.34C37.3043 47.4379 39.9629 48.0328 42.66 48.09C47.22 48.09 50.64 46.56 52.92 43.5C55.2 40.44 56.34 35.8467 56.34 29.72C56.34 23.4133 54.87 18.1067 51.93 13.8C48.99 9.49332 44.75 7.34332 39.21 7.34999C34.4193 7.42838 29.7835 9.0602 26 12Z" fill="#153651"/>
<path d="M100.78 0H105.08L130.79 74.37C132.322 79.1176 134.406 83.6688 137 87.93C139.26 91.4367 142.013 93.2667 145.26 93.42V96.91H119.11V93.42H120.84C121.69 93.42 122.11 92.62 122.11 91.02C122.102 90.471 122.004 89.9271 121.82 89.41L113.12 64.1H81.22C77.9333 73.5133 76.2867 80.5133 76.28 85.1C76.2356 86.2091 76.4225 87.3153 76.8288 88.3483C77.2351 89.3812 77.8519 90.3183 78.64 91.1C79.4688 91.8868 80.4476 92.4986 81.5179 92.8989C82.5883 93.2992 83.7283 93.4798 84.87 93.43H88.72V96.92H56.13V93.42C61.5633 93.14 66.52 87.3333 71 76L100.78 0ZM98.27 20.85L83 59.59H111.55L98.27 20.85Z" fill="#153651"/>
<path d="M227.46 79.16C212.127 92.4 198.127 99.02 185.46 99.02C175.153 99.0067 165.883 95.0667 157.65 87.2C149.417 79.3334 145.31 68.48 145.33 54.64C145.177 45.5985 147.379 36.6728 151.72 28.74C156.13 20.9684 162.354 14.3779 169.86 9.53002C177.68 4.34336 187.093 1.75002 198.1 1.75002C207.351 1.69174 216.544 3.21709 225.28 6.26002V28.26H220.12C219.923 25.053 219 21.9326 217.42 19.1348C215.84 16.3369 213.645 13.9348 211 12.11C205.31 8.17548 198.516 6.15138 191.6 6.33002C181.093 6.33002 172.833 10.1867 166.82 17.9C160.807 25.6134 157.807 35.07 157.82 46.27C157.82 58.4034 161.237 68.4667 168.07 76.46C174.903 84.4534 183.673 88.4534 194.38 88.46C205.047 88.46 216.067 83.8767 227.44 74.71L227.46 79.16Z" fill="#153651"/>
<path d="M232.4 3.85999H268V7.34999C263.62 7.44332 260.683 8.26332 259.19 9.80999C257.69 11.35 256.95 14.36 256.95 18.81V93.42H266.42C281.153 93.42 289.903 85.7066 292.67 70.28H297.91L291.65 100.33H288.3C288.253 98.05 287.21 96.91 285.17 96.91H232.4V93.42C236.71 93.42 239.64 92.54 241.16 90.92C242.68 89.3 243.46 86.31 243.46 81.92V18.84C243.46 14.1733 242.633 11.1133 240.98 9.65999C239.33 8.21999 236.47 7.43999 232.4 7.34999V3.85999Z" fill="#153651"/>
<path d="M334.67 7.34999C330.31 7.44999 327.37 8.27999 325.87 9.85999C324.37 11.44 323.62 14.43 323.62 18.86V81.92C323.62 89.3466 327.303 93.18 334.67 93.42V96.91H299.1V93.42C303.46 93.42 306.4 92.54 307.9 90.92C309.4 89.3 310.16 86.31 310.16 81.92V18.84C310.16 14.1733 309.333 11.1067 307.68 9.63999C306.027 8.17332 303.167 7.40999 299.1 7.34999V3.85999H334.67V7.34999Z" fill="#153651"/>
<path d="M346.67 3.85999H370.52L401.68 80.79L419.56 38.56C426.3 22.6467 430.74 11.08 432.88 3.85999H458.88V7.34999C454.66 7.44999 451.713 8.15332 450.04 9.45999C448.367 10.7667 447.53 13.1667 447.53 16.66C447.53 17.15 447.53 17.66 447.6 18.33L453.13 76.39C453.797 83.5166 454.927 88.1 456.52 90.14C458.113 92.18 461.3 93.2733 466.08 93.42V96.91H430.28V93.42C433.92 93.32 436.493 92.59 438 91.23C439.5 89.88 440.25 87.23 440.25 83.3C440.245 82.4748 440.199 81.6504 440.11 80.83L434.4 23.06C426.133 37.76 420.217 49.2567 416.65 57.55L398.39 100.33H395.12L361.07 15.64L358.6 41.76C357.48 53.5466 356.92 62.88 356.92 69.76C356.92 85.0933 360.753 92.9767 368.42 93.41V96.9H335.53V93.42C338.93 92.64 341.623 90.4667 343.61 86.9C345.597 83.3333 347.647 76.98 349.76 67.84C351.95 58.1938 353.494 48.412 354.38 38.56L356.2 19.21C356.2 18.29 356.27 17.29 356.27 16.21C356.27 12.77 355.59 10.45 354.27 9.26999C352.95 8.08999 350.39 7.43999 346.71 7.33999L346.67 3.85999Z" fill="#153651"/>
<path d="M467.49 3.85999H511.49C520.997 3.85999 527.217 5.43332 530.15 8.57999C533.096 11.7593 534.675 15.9677 534.55 20.3C534.47 25.4788 532.665 30.483 529.42 34.52C526.013 39.06 520.873 43.3666 514 47.44C522.44 47.5333 528.697 48.78 532.77 51.18C536.843 53.58 538.883 57.9133 538.89 64.18C538.89 72.8466 535.13 80.4733 527.61 87.06C520.484 93.4861 511.205 97.0046 501.61 96.92H467.49V93.42C471.757 93.3666 474.667 92.5467 476.22 90.96C477.78 89.37 478.55 86.36 478.55 81.96V18.84C478.55 14.1733 477.727 11.1067 476.08 9.63999C474.433 8.17332 471.57 7.40999 467.49 7.34999V3.85999ZM492.01 10.86V44.6H506.2C510.198 44.7578 514.121 43.481 517.26 41C520.12 38.6333 521.55 34.9667 521.55 30C521.55 23.3333 519.817 17.8733 516.35 13.62C514.85 11.6366 512.909 10.0301 510.68 8.92782C508.451 7.82557 505.996 7.25794 503.51 7.26999C498.71 7.32332 494.873 8.50999 492 10.83L492.01 10.86ZM492 48V86.22C497 90.1533 502.213 92.1167 507.64 92.11C509.979 92.2051 512.311 91.7891 514.474 90.8911C516.636 89.993 518.576 88.6345 520.16 86.91C523.32 83.45 524.9 78.8133 524.9 73C525.071 66.4435 522.711 60.0728 518.31 55.21C513.923 50.37 507.63 47.95 499.43 47.95L492 48Z" fill="#153651"/>
<path d="M14.18 109.79V112.45H3.28V120.91H12.13V123.58H3.28V134.88H0V109.79H14.18Z" fill="#153651"/>
<path d="M18.25 111.3C17.9383 110.987 17.7262 110.588 17.6405 110.155C17.5547 109.721 17.599 109.272 17.7679 108.864C17.9368 108.455 18.2227 108.106 18.5896 107.86C18.9566 107.614 19.3881 107.482 19.83 107.48C20.1176 107.477 20.4029 107.533 20.6678 107.644C20.9328 107.756 21.1719 107.922 21.37 108.13C21.7744 108.559 21.9996 109.126 21.9996 109.715C21.9996 110.304 21.7744 110.871 21.37 111.3C21.1719 111.508 20.9328 111.674 20.6678 111.786C20.4029 111.898 20.1176 111.953 19.83 111.95C19.5363 111.955 19.2447 111.9 18.973 111.788C18.7014 111.676 18.4553 111.51 18.25 111.3ZM21.42 115.15V134.88H18.14V115.15H21.42Z" fill="#153651"/>
<path d="M42.44 117C43.2214 117.839 43.8225 118.829 44.2061 119.909C44.5897 120.989 44.7476 122.136 44.67 123.28V134.91H41.43V123.72C41.5526 122.085 41.0405 120.467 40 119.2C39.479 118.675 38.8539 118.266 38.165 117.997C37.4762 117.728 36.7387 117.607 36 117.64C35.2362 117.603 34.4732 117.728 33.7613 118.007C33.0494 118.286 32.4048 118.713 31.87 119.26C30.7363 120.569 30.1617 122.271 30.27 124V134.91H27V115.15H30.27V118C30.919 116.989 31.8366 116.179 32.92 115.66C34.0692 115.102 35.3324 114.818 36.61 114.83C37.6774 114.784 38.7433 114.952 39.7446 115.325C40.7459 115.698 41.6624 116.267 42.44 117Z" fill="#153651"/>
<path d="M50 119.63C50.7678 118.16 51.9317 116.933 53.36 116.09C54.8064 115.245 56.4552 114.81 58.13 114.83C59.7038 114.789 61.2592 115.176 62.63 115.95C63.8194 116.604 64.8055 117.572 65.48 118.75V115.15H68.79V134.88H65.52V131.21C64.8233 132.403 63.8226 133.39 62.62 134.07C61.2581 134.85 59.7092 135.244 58.14 135.21C56.4666 135.227 54.8217 134.777 53.39 133.91C51.9429 133.036 50.7687 131.776 50 130.27C49.1812 128.636 48.7727 126.827 48.81 125C48.749 123.138 49.1583 121.292 50 119.63ZM64.58 121.09C64.023 120.033 63.1812 119.153 62.15 118.55C61.1239 117.965 59.9613 117.661 58.78 117.67C57.606 117.658 56.4498 117.958 55.43 118.54C54.4035 119.134 53.5676 120.008 53.02 121.06C52.3961 122.26 52.0864 123.598 52.12 124.95C52.087 126.318 52.3964 127.672 53.02 128.89C53.5697 129.948 54.4045 130.832 55.43 131.44C56.4461 132.033 57.6036 132.341 58.78 132.33C59.9627 132.34 61.1265 132.033 62.15 131.44C63.186 130.838 64.029 129.954 64.58 128.89C65.2012 127.682 65.5105 126.338 65.48 124.98C65.526 123.632 65.2301 122.293 64.62 121.09H64.58Z" fill="#153651"/>
<path d="M77.65 108.24V134.88H74.38V108.24H77.65Z" fill="#153651"/>
<path d="M101.12 126.24H85.35C85.3522 127.071 85.5212 127.893 85.8469 128.657C86.1726 129.422 86.6484 130.113 87.2462 130.69C87.8439 131.268 88.5514 131.719 89.3267 132.018C90.1021 132.317 90.9295 132.457 91.76 132.43C93.0184 132.473 94.259 132.124 95.31 131.43C96.243 130.788 96.9444 129.862 97.31 128.79H100.83C100.331 130.644 99.217 132.273 97.67 133.41C95.9512 134.642 93.8735 135.271 91.76 135.2C90.0118 135.224 88.2879 134.79 86.76 133.94C85.2841 133.099 84.08 131.854 83.29 130.35C82.4742 128.677 82.0502 126.841 82.0502 124.98C82.0502 123.119 82.4742 121.283 83.29 119.61C84.0645 118.116 85.2606 116.881 86.73 116.06C88.2894 115.21 90.0442 114.782 91.82 114.82C93.5645 114.784 95.2883 115.204 96.82 116.04C98.2269 116.825 99.3818 117.994 100.15 119.41C100.945 120.898 101.347 122.564 101.32 124.25C101.23 124.88 101.19 125.54 101.12 126.24ZM97 120.36C96.464 119.471 95.6827 118.756 94.75 118.3C93.7672 117.829 92.6896 117.59 91.6 117.6C90.0367 117.559 88.5189 118.129 87.37 119.19C86.1588 120.338 85.4417 121.913 85.37 123.58H97.85C97.8762 122.448 97.5815 121.332 97 120.36Z" fill="#153651"/>
<path d="M118.44 132.22H127.22V134.88H115.16V109.79H118.44V132.22Z" fill="#153651"/>
<path d="M130.82 111.3C130.508 110.986 130.295 110.587 130.21 110.152C130.125 109.718 130.17 109.268 130.34 108.859C130.51 108.45 130.797 108.101 131.166 107.856C131.534 107.61 131.967 107.48 132.41 107.48C132.696 107.477 132.98 107.534 133.243 107.645C133.506 107.757 133.743 107.922 133.94 108.13C134.344 108.559 134.57 109.126 134.57 109.715C134.57 110.304 134.344 110.871 133.94 111.3C133.743 111.508 133.506 111.673 133.243 111.784C132.98 111.896 132.696 111.953 132.41 111.95C132.115 111.956 131.821 111.902 131.548 111.79C131.274 111.678 131.027 111.511 130.82 111.3ZM133.99 115.15V134.88H130.71V115.15H133.99Z" fill="#153651"/>
<path d="M152.19 116C153.382 116.653 154.372 117.622 155.05 118.8V115.2H158.36V135.36C158.392 137.035 157.996 138.69 157.21 140.17C156.451 141.559 155.309 142.701 153.92 143.46C152.384 144.283 150.662 144.693 148.92 144.65C146.622 144.732 144.356 144.092 142.44 142.82C141.607 142.248 140.905 141.508 140.377 140.646C139.85 139.785 139.51 138.822 139.38 137.82H142.62C142.983 139.027 143.776 140.06 144.85 140.72C146.069 141.478 147.485 141.86 148.92 141.82C149.732 141.85 150.541 141.715 151.299 141.423C152.058 141.13 152.748 140.687 153.33 140.12C153.924 139.487 154.382 138.738 154.676 137.922C154.97 137.105 155.094 136.237 155.04 135.37V131.23C154.352 132.428 153.358 133.422 152.16 134.11C150.81 134.903 149.266 135.305 147.7 135.27C146.017 135.29 144.362 134.838 142.923 133.965C141.484 133.091 140.319 131.832 139.56 130.33C138.719 128.685 138.297 126.857 138.33 125.01C138.29 123.162 138.713 121.333 139.56 119.69C140.328 118.22 141.492 116.993 142.92 116.15C144.37 115.304 146.022 114.869 147.7 114.89C149.269 114.85 150.82 115.234 152.19 116ZM154.19 121.14C153.633 120.083 152.791 119.203 151.76 118.6C150.734 118.015 149.571 117.711 148.39 117.72C147.216 117.708 146.06 118.008 145.04 118.59C144.014 119.184 143.178 120.058 142.63 121.11C142.006 122.31 141.696 123.648 141.73 125C141.697 126.368 142.006 127.722 142.63 128.94C143.18 129.998 144.014 130.882 145.04 131.49C146.056 132.083 147.214 132.391 148.39 132.38C149.573 132.39 150.737 132.083 151.76 131.49C152.796 130.888 153.639 130.004 154.19 128.94C154.811 127.732 155.121 126.388 155.09 125.03C155.12 123.658 154.796 122.301 154.15 121.09L154.19 121.14Z" fill="#153651"/>
<path d="M181.4 115.15V134.88H178.12V132C177.492 133.019 176.587 133.838 175.51 134.36C174.37 134.935 173.107 135.227 171.83 135.21C170.386 135.22 168.961 134.877 167.68 134.21C166.45 133.57 165.443 132.573 164.79 131.35C164.041 129.921 163.672 128.323 163.72 126.71V115.15H167V126.28C166.896 127.908 167.427 129.514 168.48 130.76C169 131.287 169.624 131.699 170.313 131.969C171.002 132.24 171.74 132.363 172.48 132.33C173.246 132.37 174.011 132.246 174.725 131.967C175.439 131.687 176.085 131.259 176.62 130.71C177.709 129.388 178.249 127.699 178.13 125.99V115.15H181.4Z" fill="#153651"/>
<path d="M192.69 115.73C193.883 115.074 195.229 114.75 196.59 114.79V118.18H195.73C192.063 118.18 190.227 120.18 190.22 124.18V134.91H187V115.15H190.27V118.36C190.805 117.267 191.646 116.354 192.69 115.73Z" fill="#153651"/>
<path d="M218.26 126.24H202.5C202.499 127.071 202.666 127.893 202.99 128.658C203.315 129.423 203.789 130.115 204.387 130.693C204.984 131.271 205.691 131.722 206.467 132.021C207.242 132.319 208.07 132.458 208.9 132.43C210.158 132.473 211.399 132.124 212.45 131.43C213.383 130.788 214.084 129.862 214.45 128.79H218C217.494 130.643 216.377 132.271 214.83 133.41C213.112 134.643 211.034 135.273 208.92 135.2C207.172 135.224 205.448 134.79 203.92 133.94C202.448 133.095 201.245 131.85 200.45 130.35C199.584 128.691 199.15 126.841 199.19 124.97C199.149 123.11 199.568 121.269 200.41 119.61C201.185 118.116 202.381 116.881 203.85 116.06C205.41 115.211 207.164 114.784 208.94 114.82C210.685 114.784 212.408 115.204 213.94 116.04C215.347 116.825 216.502 117.994 217.27 119.41C218.065 120.898 218.467 122.564 218.44 124.25C218.418 124.916 218.358 125.581 218.26 126.24ZM214.16 120.36C213.624 119.471 212.843 118.756 211.91 118.3C210.927 117.829 209.85 117.59 208.76 117.6C207.197 117.559 205.679 118.129 204.53 119.19C203.322 120.341 202.606 121.914 202.53 123.58H215C215.029 122.449 214.738 121.333 214.16 120.36Z" fill="#153651"/>
</svg>
