<svg width="175" height="188" viewBox="0 0 175 188" fill="none" xmlns="http://www.w3.org/2000/svg">
<path d="M174.691 125.183V133.383C174.291 144.923 165.561 153.623 165.561 153.623L165.311 145.443L165.561 145.153C170.971 139.856 174.224 132.741 174.691 125.183Z" fill="#80AB5E"/>
<path d="M165.581 136.813C165.581 136.813 174.481 127.993 174.671 117.273V125.183C174.217 132.748 170.971 139.875 165.561 145.183L165.581 136.813Z" fill="#69BBCA"/>
<path d="M174.351 113.403C174.595 114.678 174.702 115.976 174.671 117.273C174.481 127.993 165.581 136.813 165.581 136.813V128.303C165.581 128.303 165.581 128.303 165.651 128.233L165.881 127.993C169.811 123.743 173.031 118.823 174.291 113.473L174.351 113.403Z" fill="#C4C482"/>
<path d="M117.961 168.233L129.221 165.863C128.461 166.053 124.101 167.093 117.961 168.233Z" fill="#CBCE98"/>
<path d="M143.161 79.3434C126.161 73.9734 105.231 78.0834 105.231 78.0834L87.5013 81.6234C85.6502 82.0551 83.7776 82.3889 81.8913 82.6234C76.5913 83.3134 68.3813 83.7434 61.0113 81.5234C48.9013 77.8634 44.0113 77.5234 44.0113 77.5234C44.0113 77.5234 41.8113 76.3734 30.2813 79.0034C18.7513 81.6334 14.7413 86.3034 14.7413 86.3034C14.7413 86.3034 4.91134 92.4834 11.0813 103.003C11.0813 103.003 11.0813 103.213 11.2613 103.583C11.8425 105.314 12.6602 106.957 13.6913 108.463C14.6652 109.945 15.9227 111.22 17.3913 112.213C22.0813 115.293 24.8913 115.493 29.3313 125.023C35.4513 138.163 43.9513 151.743 68.7213 153.633C83.2197 154.662 97.7904 153.519 111.951 150.243L129.341 157.243C129.341 157.243 100.691 165.343 82.7013 165.343C68.5513 165.343 52.1213 164.263 41.5913 157.513C32.8713 151.933 26.5013 138.893 23.9913 133.743C20.7897 127.861 16.6446 122.544 11.7213 118.003C6.52134 113.463 0.261337 106.003 0.0913372 97.3634C0.0673682 92.7505 1.62369 88.2686 4.50134 84.6634C4.50134 84.6634 9.53134 79.8834 24.0213 76.0034C38.5113 72.1234 42.0213 71.8034 54.5313 76.0034C67.0413 80.2034 73.5313 80.2934 86.6813 77.8634C86.6813 77.8634 106.791 74.2134 114.861 74.0534C122.931 73.8934 131.161 72.9834 143.661 77.4034C143.661 77.4034 160.411 81.7034 169.901 94.5034C174.801 101.103 175.741 107.503 174.341 113.363C173.081 118.713 169.861 123.633 165.931 127.883C167.768 125.797 169.346 123.498 170.631 121.033C171.273 119.807 171.828 118.537 172.291 117.233C172.75 115.975 173.105 114.68 173.351 113.363C174.351 107.983 173.611 101.683 168.531 95.3634C168.531 95.4534 160.191 84.7134 143.161 79.3434Z" fill="#EBDFB6"/>
<path d="M132.841 82.9233C116.841 80.1733 103.671 81.2433 86.6813 83.9833C85.0713 84.2433 83.5713 84.4733 82.1613 84.6633L81.8913 82.6633C83.7776 82.4288 85.6502 82.095 87.5013 81.6633L105.231 78.1233C105.231 78.1233 126.131 74.0133 143.161 79.3833C160.191 84.7533 168.531 95.4933 168.531 95.4933C173.611 101.763 174.361 108.063 173.351 113.493C171.351 103.063 161.481 95.6533 161.481 95.6533C161.481 95.6533 148.841 85.6633 132.841 82.9233Z" fill="#C4C482"/>
<path d="M89.4013 88.2434C86.1113 88.2434 83.0813 88.3334 79.9013 88.6134L79.7413 86.8834L80.5913 86.8034C100.951 84.9634 104.281 85.5934 113.411 85.5834C122.541 85.5734 143.961 90.0034 156.831 98.9134C169.701 107.823 172.291 117.273 172.291 117.273C171.828 118.577 171.273 119.847 170.631 121.073C167.021 112.803 157.101 105.903 156.071 105.213C146.413 99.2921 135.914 94.8654 124.931 92.0834C108.331 88.0734 100.541 88.3134 89.4013 88.2434Z" fill="#80AB5E"/>
<path d="M86.6813 84.0034C103.681 81.2634 116.841 80.1934 132.841 82.9434C148.841 85.6934 161.481 95.5834 161.481 95.5834C161.481 95.5834 171.351 102.993 173.351 113.423C173.105 114.74 172.75 116.035 172.291 117.293C172.291 117.293 169.701 107.853 156.831 98.9334C143.961 90.0134 122.551 85.5934 113.411 85.6034C104.271 85.6134 100.951 85.0034 80.5913 86.8034L79.7413 86.8834L76.0813 87.1934L75.9413 85.3534C77.8213 85.1934 79.8813 84.9734 82.1613 84.6634C83.5713 84.4734 85.0713 84.2434 86.6813 84.0034Z" fill="#69BBCA"/>
<path d="M79.7413 86.8833L79.9013 88.6133C72.3113 89.2933 63.9013 91.0333 48.8413 94.7633C22.2413 101.383 17.3913 112.203 17.3913 112.203C15.9226 111.21 14.6652 109.935 13.6913 108.453L14.0813 108.203C17.9813 100.203 30.6213 94.1233 30.6213 94.1233C44.5613 88.6833 58.0213 88.6133 76.0813 87.1933L79.7413 86.8833Z" fill="#80AB5E"/>
<path d="M51.8613 84.2933C61.3813 85.1533 66.6713 86.1033 75.9413 85.3533L76.0813 87.1934C58.0213 88.6134 44.5613 88.6834 30.6213 94.1234C30.6213 94.1234 17.9813 100.123 14.0813 108.203L13.6913 108.453C12.6602 106.947 11.8424 105.304 11.2613 103.573H11.4413C12.107 100.265 13.6418 97.1937 15.8879 94.6752C18.134 92.1566 21.0104 90.2818 24.2213 89.2433C35.5713 85.2833 39.2313 83.1433 51.8613 84.2933Z" fill="#69BBCA"/>
<path d="M24.2213 89.2433C21.0142 90.2792 18.1404 92.1495 15.8946 94.6624C13.6488 97.1754 12.1118 100.24 11.4413 103.543H11.2613C11.1313 103.173 11.0813 102.963 11.0813 102.963C4.91128 92.4833 14.7413 86.3033 14.7413 86.3033C14.7413 86.3033 18.7413 81.6233 30.2813 78.9933C41.8213 76.3633 44.0213 77.5033 44.0213 77.5033C44.0213 77.5033 48.9313 77.8533 61.0213 81.5033C68.3913 83.7233 76.6013 83.2933 81.9013 82.6033L82.1713 84.6033C79.8913 84.9133 77.8313 85.1333 75.9513 85.2933C66.6813 86.0433 61.3913 85.0933 51.8713 84.2333C39.2313 83.1433 35.5713 85.2833 24.2213 89.2433Z" fill="#C4C482"/>
<path d="M5.76131 152.863C0.321311 141.403 0.571311 139.193 0.0213111 133.203C0.0213111 133.203 -0.0586889 131.133 0.0913111 123.913C0.321311 126.363 1.80131 136.913 11.5413 149.723C20.5413 161.513 33.7113 168.723 46.3713 172.403C59.0313 176.083 74.0213 178.633 93.1213 179.003C105.35 179.073 117.533 177.495 129.341 174.313V182.543C115.007 186.135 100.221 187.591 85.4613 186.863C62.8513 185.463 41.7713 179.973 27.1413 172.573C17.0213 167.433 8.22131 158.003 5.76131 152.863Z" fill="#80AB5E"/>
<path d="M0.0912978 97.3633C0.261298 106.003 6.5213 113.463 11.7213 118.003C16.6535 122.535 20.8087 127.846 24.0213 133.723C26.5313 138.873 32.9013 151.913 41.6213 157.493C52.1513 164.243 68.6213 165.323 82.7313 165.323C100.731 165.323 129.371 157.223 129.371 157.223V165.843H129.251L117.991 168.213C110.167 169.715 102.259 170.744 94.3113 171.293C77.3113 172.293 56.1513 168.103 56.1513 168.103C56.1513 168.103 40.7813 164.463 34.0213 160.573C27.2613 156.683 21.2913 152.783 14.5813 142.263C9.8613 134.863 12.0913 138.563 5.6413 126.693C2.8313 121.503 0.541298 118.693 0.0912978 106.583C0.0212978 104.003 0.0212978 100.943 0.0812978 97.3633H0.0912978Z" fill="#C4C482"/>
<path d="M0.111328 106.583C0.561328 118.673 2.85133 121.503 5.66133 126.693C12.1113 138.563 9.88133 134.863 14.6013 142.263C21.3113 152.783 27.3013 156.693 34.0413 160.573C40.7813 164.453 56.1013 168.123 56.1013 168.123C56.1013 168.123 77.2413 172.343 94.2613 171.313C102.209 170.764 110.117 169.735 117.941 168.233C124.081 167.093 128.441 166.053 129.201 165.863H129.321V174.303C117.52 177.487 105.344 179.067 93.1213 179.003C74.0213 178.633 59.0213 176.063 46.3913 172.403C33.7613 168.743 20.5313 161.513 11.5613 149.723C1.82133 136.923 0.341328 126.363 0.111328 123.913C0.111328 123.583 0.111328 123.403 0.111328 123.403C0.111328 123.403 0.111328 114.063 0.111328 106.603V106.583Z" fill="#69BBCA"/>
<path d="M56.5513 23.3233C57.2513 27.0033 57.8913 31.0033 59.0213 32.4133C63.8313 42.4133 70.5313 44.8533 79.0213 46.9133C84.2313 44.4433 88.1913 38.5133 95.6013 40.0333C102.331 43.0333 100.151 50.6033 101.171 55.1833L102.721 65.9033L107.171 78.9033C109.451 90.6333 114.811 106.283 117.801 117.803C117.801 117.803 120.801 125.943 118.881 131.683C114.681 141.683 114.301 143.483 107.211 145.943C103.371 145.673 101.301 137.233 94.4113 130.023C93.2713 128.223 85.4113 118.903 84.1913 118.023C83.1913 116.593 71.4313 103.453 70.5713 100.303C66.8613 93.3033 61.1713 86.7033 44.4013 75.3033C43.2013 74.4333 40.5713 72.5833 39.3413 71.7233C37.7837 70.1398 35.8807 68.9385 33.7813 68.2133C25.1013 63.1633 18.2913 59.8333 14.6713 49.3433C17.0213 41.1333 16.0713 33.1433 30.1413 25.4933C39.9013 21.4933 45.6813 15.5833 50.8413 15.0733C51.8573 14.9638 52.8847 15.094 53.8413 15.4533C54.7213 16.0333 55.3513 17.8633 55.8413 20.1333C56.1313 21.1333 56.3413 22.2233 56.5513 23.3233Z" fill="#153651"/>
<path d="M72.0213 7.67326C72.0213 7.67326 72.3313 9.36326 65.9513 13.8233C62.2479 16.3832 59.0478 19.6037 56.5113 23.3233C56.3013 22.2233 56.0913 21.1333 55.8613 20.1333C56.2713 19.4233 63.6113 6.85326 69.2313 4.30326C70.9813 3.51326 71.9213 3.51326 72.3913 3.88326C73.5313 4.75326 72.0213 7.67326 72.0213 7.67326Z" fill="#153651"/>
<path d="M68.5813 0.353311L72.5813 3.76331L72.4713 3.88331C72.0013 3.51331 71.0613 3.51331 69.3113 4.30331C63.6913 6.85331 56.3113 19.4233 55.9413 20.1333C55.4113 17.8633 54.7813 16.0333 53.9413 15.4533C52.9847 15.094 51.9572 14.9639 50.9413 15.0733V15.0033C50.9513 15.0033 61.9413 -2.69669 68.5813 0.353311Z" fill="#153651"/>
<path d="M132.701 157.113C132.701 162.113 122.231 166.113 109.321 166.113C96.4113 166.113 85.9413 162.113 85.9413 157.113C85.9413 152.113 96.4113 148.113 109.321 148.113C122.231 148.113 132.701 152.143 132.701 157.113ZM109.321 151.743C101.611 151.743 95.3213 154.143 95.3213 157.113C95.3213 160.083 101.571 162.473 109.321 162.473C117.071 162.473 123.321 160.073 123.321 157.113C123.321 154.153 117.021 151.743 109.321 151.743Z" fill="#783536"/>
<path d="M109.321 158.813C111.762 158.813 113.741 158.052 113.741 157.113C113.741 156.174 111.762 155.413 109.321 155.413C106.88 155.413 104.901 156.174 104.901 157.113C104.901 158.052 106.88 158.813 109.321 158.813Z" fill="#783536"/>
</svg>
