<svg width="97" height="97" viewBox="0 0 97 97" fill="none" xmlns="http://www.w3.org/2000/svg">
<path d="M48.5 97L54.068 61.9424L71.5 71.3333L61.9425 54.068L97 48.5L61.9425 42.932L70.6667 26.3333L54.068 35.0575L48.5 0L42.932 35.0575L26 26.3333L35.0576 42.932L0 48.5L35.0576 54.068L26 71.3333L42.932 61.9424L48.5 97Z" fill="#CFE4E7"/>
<path d="M48.5 97L54.068 61.9424L71.5 71.3333L61.9425 54.068L97 48.5L61.9425 42.932L70.6667 26.3333L54.068 35.0575L48.5 0L42.932 35.0575L26 26.3333L35.0576 42.932L0 48.5L35.0576 54.068L26 71.3333L42.932 61.9424L48.5 97Z" stroke="#153651"/>
</svg>
