<svg width="21" height="22" viewBox="0 0 21 22" fill="none" xmlns="http://www.w3.org/2000/svg">
<path d="M20.547 14.7239V15.6883C20.4999 17.0457 19.4731 18.0689 19.4731 18.0689L19.4437 17.1068L19.4731 17.0727C20.1094 16.4497 20.4921 15.6127 20.547 14.7239Z" fill="#153651"/>
<path d="M19.4754 16.0917C19.4754 16.0917 20.5222 15.0543 20.5446 13.7935V14.7238C20.4911 15.6136 20.1093 16.4519 19.4731 17.0762L19.4754 16.0917Z" fill="#153651"/>
<path d="M20.5069 13.3383C20.5355 13.4882 20.5482 13.6408 20.5446 13.7934C20.5222 15.0543 19.4754 16.0917 19.4754 16.0917V15.0908C19.4754 15.0908 19.4754 15.0908 19.4836 15.0825L19.5107 15.0543C19.9729 14.5544 20.3517 13.9757 20.4999 13.3465L20.5069 13.3383Z" fill="#153651"/>
<path d="M13.8745 19.7874L15.1988 19.5087C15.1094 19.531 14.5966 19.6533 13.8745 19.7874Z" fill="#153651"/>
<path d="M16.8384 9.33225C14.8389 8.70064 12.3772 9.18406 12.3772 9.18406L10.2918 9.60043C10.0741 9.6512 9.85383 9.69046 9.63197 9.71804C9.00859 9.7992 8.04294 9.84978 7.17609 9.58866C5.75173 9.15818 5.17658 9.11819 5.17658 9.11819C5.17658 9.11819 4.91782 8.98293 3.56168 9.29226C2.20554 9.6016 1.73389 10.1509 1.73389 10.1509C1.73389 10.1509 0.577695 10.8778 1.3034 12.1151C1.3034 12.1151 1.3034 12.1398 1.32457 12.1833C1.39292 12.3869 1.48911 12.5801 1.61039 12.7573C1.72493 12.9316 1.87284 13.0815 2.04557 13.1984C2.5972 13.5606 2.92771 13.5842 3.44994 14.7051C4.16976 16.2506 5.16952 17.8478 8.08293 18.0701C9.78821 18.1911 11.502 18.0567 13.1676 17.6714L15.213 18.4947C15.213 18.4947 11.8432 19.4474 9.72724 19.4474C8.06294 19.4474 6.13046 19.3204 4.89194 18.5265C3.86631 17.8702 3.11708 16.3364 2.82186 15.7307C2.44528 15.0388 1.95775 14.4134 1.37868 13.8794C0.767061 13.3454 0.0307694 12.468 0.0107743 11.4517C0.00795507 10.9092 0.191008 10.382 0.529472 9.95799C0.529472 9.95799 1.12109 9.39577 2.82538 8.93941C4.52968 8.48305 4.94252 8.44541 6.41392 8.93941C7.88533 9.43341 8.64868 9.44399 10.1954 9.15818C10.1954 9.15818 12.5607 8.72887 13.5098 8.71005C14.459 8.69123 15.427 8.5842 16.8973 9.10408C16.8973 9.10408 18.8674 9.60983 19.9836 11.1154C20.5599 11.8916 20.6705 12.6444 20.5058 13.3336C20.3576 13.9629 19.9789 14.5416 19.5166 15.0415C19.7326 14.7961 19.9183 14.5256 20.0694 14.2358C20.1449 14.0915 20.2101 13.9422 20.2647 13.7888C20.3187 13.6408 20.3604 13.4885 20.3894 13.3336C20.507 12.7008 20.4199 11.9599 19.8224 11.2165C19.8224 11.2271 18.8415 9.96387 16.8384 9.33225Z" fill="#153651"/>
<path d="M15.6246 9.75327C13.7427 9.42982 12.1937 9.55567 10.1954 9.87794C10.006 9.90852 9.82956 9.93558 9.66371 9.95792L9.63196 9.72269C9.85382 9.69511 10.0741 9.65584 10.2918 9.60507L12.3772 9.1887C12.3772 9.1887 14.8354 8.70529 16.8384 9.3369C18.8415 9.96851 19.8224 11.2317 19.8224 11.2317C20.4199 11.9692 20.5081 12.7102 20.3893 13.3489C20.1541 12.1221 18.9932 11.2505 18.9932 11.2505C18.9932 11.2505 17.5065 10.0755 15.6246 9.75327Z" fill="#153651"/>
<path d="M10.5152 10.379C10.1283 10.379 9.77187 10.3896 9.39785 10.4225L9.37903 10.219L9.479 10.2096C11.8737 9.9932 12.2654 10.0673 13.3392 10.0661C14.4131 10.0649 16.9325 10.586 18.4462 11.634C19.96 12.682 20.2646 13.7935 20.2646 13.7935C20.2101 13.9468 20.1448 14.0962 20.0694 14.2404C19.6448 13.2677 18.478 12.4561 18.3568 12.375C17.2208 11.6785 15.986 11.1579 14.6942 10.8306C12.7417 10.359 11.8255 10.3872 10.5152 10.379Z" fill="#153651"/>
<path d="M10.1954 9.88027C12.1949 9.558 13.7427 9.43215 15.6246 9.7556C17.5065 10.079 18.9932 11.2423 18.9932 11.2423C18.9932 11.2423 20.1541 12.1138 20.3893 13.3406C20.3604 13.4955 20.3187 13.6477 20.2647 13.7958C20.2647 13.7958 19.96 12.6855 18.4463 11.6363C16.9325 10.5872 14.4143 10.0673 13.3393 10.0685C12.2643 10.0696 11.8738 9.99789 9.47906 10.2096L9.37908 10.219L8.9486 10.2555L8.93213 10.0391C9.15325 10.0202 9.39555 9.99436 9.66372 9.9579C9.82956 9.93555 10.006 9.9085 10.1954 9.88027Z" fill="#153651"/>
<path d="M9.37905 10.219L9.39787 10.4225C8.50515 10.5025 7.51598 10.7071 5.74464 11.1458C2.61599 11.9245 2.04554 13.1971 2.04554 13.1971C1.8728 13.0802 1.7249 12.9303 1.61035 12.756L1.65622 12.7266C2.11493 11.7857 3.60163 11.0706 3.60163 11.0706C5.24123 10.4307 6.82438 10.4225 8.94857 10.2555L9.37905 10.219Z" fill="#153651"/>
<path d="M6.0999 9.91437C7.21962 10.0155 7.84182 10.1273 8.93215 10.039L8.94861 10.2555C6.82443 10.4225 5.24128 10.4307 3.60168 11.0706C3.60168 11.0706 2.11498 11.7763 1.65627 12.7266L1.6104 12.756C1.48912 12.5788 1.39294 12.3856 1.32458 12.1821H1.34576C1.42406 11.7929 1.60458 11.4317 1.86876 11.1355C2.13295 10.8392 2.47126 10.6187 2.84892 10.4966C4.18389 10.0308 4.61437 9.77911 6.0999 9.91437Z" fill="#153651"/>
<path d="M2.84891 10.4967C2.4717 10.6185 2.13369 10.8385 1.86954 11.1341C1.60539 11.4296 1.42462 11.7901 1.34575 12.1786H1.32458C1.30929 12.1351 1.30341 12.1104 1.30341 12.1104C0.577701 10.8778 1.73389 10.1509 1.73389 10.1509C1.73389 10.1509 2.20436 9.60041 3.56168 9.29108C4.919 8.98174 5.17776 9.11583 5.17776 9.11583C5.17776 9.11583 5.75527 9.15699 7.17727 9.5863C8.04412 9.84741 9.00977 9.79684 9.63315 9.71568L9.6649 9.95092C9.39673 9.98738 9.15444 10.0133 8.93332 10.0321C7.84299 10.1203 7.22079 10.0086 6.10106 9.9074C4.61437 9.7792 4.18388 10.0309 2.84891 10.4967Z" fill="#153651"/>
<path d="M0.677637 17.9795C0.0377921 16.6316 0.0671967 16.3717 0.00250658 15.6671C0.00250658 15.6671 -0.0069029 15.4237 0.0107399 14.5745C0.0377921 14.8626 0.211868 16.1035 1.35747 17.6102C2.41604 18.9969 3.96507 19.8449 5.45412 20.2778C6.94317 20.7106 8.70627 21.0105 10.9528 21.0541C12.3912 21.0622 13.8241 20.8767 15.2129 20.5024V21.4704C13.527 21.8929 11.7878 22.0641 10.0518 21.9785C7.39248 21.8139 4.91308 21.1682 3.19232 20.2978C2.00202 19.6932 0.966978 18.5841 0.677637 17.9795Z" fill="#153651"/>
<path d="M0.0107861 11.4517C0.0307812 12.4679 0.767073 13.3453 1.37869 13.8793C1.95881 14.4123 2.44754 15.037 2.8254 15.7283C3.12062 16.334 3.86985 17.8677 4.89548 18.5241C6.134 19.318 8.07118 19.445 9.73078 19.445C11.8479 19.445 15.2165 18.4923 15.2165 18.4923V19.5062H15.2024L13.878 19.7849C12.9577 19.9616 12.0276 20.0825 11.0928 20.1472C9.09329 20.2648 6.60448 19.772 6.60448 19.772C6.60448 19.772 4.79668 19.3439 4.00158 18.8863C3.20648 18.4288 2.5043 17.9701 1.71508 16.7327C1.15992 15.8624 1.42221 16.2975 0.663569 14.9014C0.333061 14.291 0.0637144 13.9605 0.0107861 12.5361C0.00255276 12.2326 0.00255276 11.8727 0.00960987 11.4517H0.0107861Z" fill="#153651"/>
<path d="M0.0130615 12.5361C0.0659898 13.9581 0.335336 14.291 0.665844 14.9014C1.42448 16.2976 1.16219 15.8624 1.71735 16.7328C2.50657 17.9701 3.21111 18.43 4.00386 18.8864C4.79661 19.3427 6.59852 19.7744 6.59852 19.7744C6.59852 19.7744 9.08498 20.2707 11.0868 20.1496C12.0217 20.0849 12.9518 19.9639 13.872 19.7873V19.7873C14.5942 19.6532 15.107 19.5309 15.1964 19.5086H15.2105V20.5013C13.8225 20.8757 12.3904 21.0616 10.9528 21.0541C8.70624 21.0105 6.94197 20.7083 5.45644 20.2778C3.97092 19.8473 2.41483 18.9969 1.35979 17.6102C0.214189 16.1047 0.0401138 14.8626 0.0130615 14.5745C0.0130615 14.5356 0.0130615 14.5145 0.0130615 14.5145C0.0130615 14.5145 0.0130615 13.4159 0.0130615 12.5385V12.5361Z" fill="#153651"/>
<path d="M6.65151 2.74321C6.73384 3.17605 6.80912 3.64652 6.94203 3.81236C7.50777 4.98855 8.29582 5.27554 9.2944 5.51783C9.90719 5.22731 10.373 4.52983 11.2445 4.70861C12.0361 5.06147 11.7797 5.95184 11.8996 6.49053L12.082 7.7514L12.6054 9.28044C12.8735 10.6601 13.504 12.5008 13.8556 13.8558C13.8556 13.8558 14.2085 14.8132 13.9827 15.4883C13.4887 16.6645 13.444 16.8762 12.6101 17.1656C12.1584 17.1338 11.9149 16.1411 11.1045 15.2931C10.9705 15.0814 10.046 13.9852 9.90248 13.8817C9.78486 13.7135 8.40167 12.168 8.30052 11.7975C7.86416 10.9742 7.19491 10.1979 5.22244 8.85702C5.0813 8.75469 4.77197 8.5371 4.62729 8.43594C4.44409 8.2497 4.22026 8.1084 3.97334 8.0231C2.95241 7.42913 2.15143 7.03746 1.72565 5.80364C2.00205 4.83799 1.89031 3.89822 3.5452 2.99844C4.69316 2.52797 5.373 1.83284 5.97991 1.77286C6.0994 1.75999 6.22025 1.77529 6.33276 1.81755C6.43627 1.88577 6.51037 2.10101 6.568 2.36801C6.60211 2.48563 6.62681 2.61383 6.65151 2.74321Z" fill="#153651"/>
<path d="M8.47109 0.90242C8.47109 0.90242 8.50755 1.1012 7.75714 1.62577C7.32155 1.92687 6.94516 2.30566 6.64683 2.74315C6.62213 2.61377 6.59743 2.48557 6.57037 2.36795C6.6186 2.28444 7.48192 0.805973 8.14293 0.506046C8.34876 0.413128 8.45933 0.413128 8.51461 0.456646C8.64869 0.558974 8.47109 0.90242 8.47109 0.90242Z" fill="#153651"/>
<path d="M8.06643 0.0415559L8.5369 0.442635L8.52396 0.456749C8.46868 0.41323 8.35812 0.41323 8.15229 0.506149C7.49127 0.806076 6.62325 2.28454 6.57973 2.36805C6.51739 2.10106 6.44329 1.88581 6.34449 1.81759C6.23198 1.77534 6.11113 1.76003 5.99164 1.7729V1.76467C5.99281 1.76467 7.28544 -0.31718 8.06643 0.0415559Z" fill="#153651"/>
<path d="M15.6082 18.4793C15.6082 19.0674 14.3767 19.5379 12.8583 19.5379C11.3398 19.5379 10.1083 19.0674 10.1083 18.4793C10.1083 17.8913 11.3398 17.4208 12.8583 17.4208C14.3767 17.4208 15.6082 17.8948 15.6082 18.4793ZM12.8583 17.8477C11.9514 17.8477 11.2116 18.13 11.2116 18.4793C11.2116 18.8287 11.9467 19.1098 12.8583 19.1098C13.7698 19.1098 14.5049 18.8275 14.5049 18.4793C14.5049 18.1312 13.7639 17.8477 12.8583 17.8477V17.8477Z" fill="#153651"/>
<path d="M12.8582 18.6794C13.1453 18.6794 13.3781 18.5899 13.3781 18.4795C13.3781 18.3691 13.1453 18.2795 12.8582 18.2795C12.5711 18.2795 12.3383 18.3691 12.3383 18.4795C12.3383 18.5899 12.5711 18.6794 12.8582 18.6794Z" fill="#153651"/>
</svg>
